{"title":"Arachnoquake.2012.BRRip.XviD-MeRCuRY","uid":8390547,"size":731593890,"categoryP":"video","categoryS":"movies","magnet":"?xt=urn:btih:0c1648873fdadc0ef898050a5a16b9e7b4febe9f&amp;dn=Arachnoquake.2012.BRRip.XviD-MeRCuRY&amp;tr=udp%3A%2F%2Ftracker.openbittorrent.com%3A80&amp;tr=udp%3A%2F%2Fopen.demonii.com%3A1337&amp;tr=udp%3A%2F%2Ftracker.coppersurfer.tk%3A6969&amp;tr=udp%3A%2F%2Fexodus.desync.com%3A6969","seeders":0,"leechers":1,"uploader":"R0thschild","files":4,"time":1366415876,"description":"--------------------------------------------\n &lt;a href=&quot;\nhttp://www.imdb.com/title/tt2151543/&quot; rel=&quot;nofollow&quot; target=&quot;_NEW&quot;&gt;\nhttp://www.imdb.com/title/tt2151543/&lt;/a&gt;\n\n86 min  -  Sci-Fi  -  23 June 2012 (USA)\n3,0 Your rating:    -/10   Ratings: 3,0/10 from 712 users   \nReviews: 11 user | 22 critic\n\nSUBTiTLES.......: Bulgarian\n\nLanguage : English\n\nScreens: &lt;a href=&quot;\nhttp://imgsure.com/?p=273665&quot; rel=&quot;nofollow&quot; target=&quot;_NEW&quot;&gt;\nhttp://imgsure.com/?p=273665&lt;/a&gt; &lt;a href=&quot;\nhttp://imgsure.com/?p=400917&quot; rel=&quot;nofollow&quot; target=&quot;_NEW&quot;&gt;\nhttp://imgsure.com/?p=400917&lt;/a&gt;\n\nFormat                           : AVI\nFormat/Info                      : Audio Video Interleave\nFile size                        : 698 MiB\nDuration                         : 1h 27mn\nOverall bit rate                 : 1 120 Kbps\n\nVideo\nID                               : 0\nFormat                           : MPEG-4 Visual\nFormat profile                   : Advanced Simple@L5\nFormat settings, BVOP            : 2\nFormat settings, QPel            : No\nFormat settings, GMC             : No warppoints\nFormat settings, Matrix          : Default (H.263)\nCodec ID                         : XVID\nCodec ID/Hint                    : XviD\nDuration                         : 1h 27mn\nBit rate                         : 987 Kbps\nWidth                            : 640 pixels\nHeight                           : 352 pixels\nDisplay aspect ratio             : 16:9\nFrame rate                       : 23.976 fps\nColor space                      : YUV\nChroma subsampling               : 4:2:0\nBit depth                        : 8 bits\nScan type                        : Progressive\nCompression mode                 : Lossy\nBits/(Pixel*Frame)               : 0.183\nStream size                      : 614 MiB (88%)\nWriting library                  : XviD 1.2.1 (UTC 2008-12-04)\n\nAudio\nID                               : 1\nFormat                           : MPEG Audio\nFormat version                   : Version 1\nFormat profile                   : Layer 3\nMode                             : Joint stereo\nMode extension                   : MS Stereo\nCodec ID                         : 55\nCodec ID/Hint                    : MP3\nDuration                         : 1h 27mn\nBit rate mode                    : Constant\nBit rate                         : 128 Kbps\nChannel(s)                       : 2 channels\nSampling rate                    : 48.0 KHz\nCompression mode                 : Lossy\nStream size                      : 79.7 MiB (11%)\nAlignment                        : Aligned on interleaves\nInterleave, duration             : 167 ms (4.00 video frames)\nInterleave, preload duration     : 216 ms\nTitle                            : arachnoquake720-son\nWriting library                  : LAME3.99r\nEncoding settings                : -m j -V 4 -q 2 -lowpass 17 -b 128\n\n--------------------------------------------\n\nMore at   &lt;a href=&quot;\nhttp://publichash.com/&quot; rel=&quot;nofollow&quot; target=&quot;_NEW&quot;&gt;\nhttp://publichash.com/&lt;/a&gt;\n\n--------------------------------------------\t","torrent":{"xt":"urn:btih:0c1648873fdadc0ef898050a5a16b9e7b4febe9f","amp;dn":"Arachnoquake.2012.BRRip.XviD-MeRCuRY","amp;tr":["udp%3A%2F%2Ftracker.openbittorrent.com%3A80","udp%3A%2F%2Fopen.demonii.com%3A1337","udp%3A%2F%2Ftracker.coppersurfer.tk%3A6969","udp%3A%2F%2Fexodus.desync.com%3A6969"],"infoHash":"0c1648873fdadc0ef898050a5a16b9e7b4febe9f","infoHashBuffer":{"type":"Buffer","data":[12,22,72,135,63,218,220,14,248,152,5,10,90,22,185,231,180,254,190,159]},"announce":[],"urlList":[]}}